PathFileType	4	(X/Y/Z)	c:/Users/goper/Files/vsCode/490R/osim_files/C12/C12_SSWS_05.trc
DataRate	CameraRate	NumFrames	NumMarkers	Units                	OrigDataRate	OrigDataStartFrame	OrigNumFrames
120.00	120.00	6	36	mm	120.0	766	1225
                Frame#	Time	LPSIS			LASIS			LTH1			LTH2			LTH3			LTH4			LLFE			LMFE			LSH1			LSH2			LSH3			LSH4			LLMAL			LMMAL			LCAL			LMTP5			LTOE			LMTP1			RPSIS			RASIS			RTH1			RTH2			RTH3			RTH4			RLFE			RMFE			RSH1			RSH2			RSH3			RSH4			RLMAL			RMMAL			RCAL			RMTP1			RTOE			RMTP5		
		X1	Y1	Z1	X2	Y2	Z2	X3	Y3	Z3	X4	Y4	Z4	X5	Y5	Z5	X6	Y6	Z6	X7	Y7	Z7	X8	Y8	Z8	X9	Y9	Z9	X10	Y10	Z10	X11	Y11	Z11	X12	Y12	Z12	X13	Y13	Z13	X14	Y14	Z14	X15	Y15	Z15	X16	Y16	Z16	X17	Y17	Z17	X18	Y18	Z18	X19	Y19	Z19	X20	Y20	Z20	X21	Y21	Z21	X22	Y22	Z22	X23	Y23	Z23	X24	Y24	Z24	X25	Y25	Z25	X26	Y26	Z26	X27	Y27	Z27	X28	Y28	Z28	X29	Y29	Z29	X30	Y30	Z30	X31	Y31	Z31	X32	Y32	Z32	X33	Y33	Z33	X34	Y34	Z34	X35	Y35	Z35	X36	Y36	Z36

766	6.37500	-1605.40613	1035.34106	341.66464	-1784.78809	995.70850	380.17419	-1769.34375	718.25653	427.98199	-1786.63782	676.36389	420.13974	-1827.09412	739.33752	425.45883	-1837.65601	696.51715	419.92163	-1885.23694	532.31824	368.08237	-1859.87244	523.53729	245.15762	-1855.13025	423.26910	388.65186	-1869.08435	377.80151	394.51773	-1913.73499	434.86707	376.13596	-1918.13464	387.54208	381.26202	-1943.01978	96.95499	346.95401	-1951.20178	104.74554	265.13962	-1881.36719	65.98262	312.27863	-2080.62964	54.18653	365.52264	-2124.85864	94.26771	296.02203	-2097.47925	56.83958	258.77478	-1593.43237	1039.34241	228.70299	-1766.13269	999.19519	124.13653	-1597.94482	737.46643	83.78809	-1592.42920	692.95770	91.74085	-1659.81836	721.24963	81.81782	-1643.64832	675.72266	87.40791	-1546.85303	520.41638	119.73199	-1560.04333	512.29962	251.25546	-1440.25146	472.86398	105.61396	-1417.37439	436.93777	98.67806	-1489.01733	431.30746	106.61578	-1457.54175	403.12839	98.63851	-1261.66223	185.13683	144.34119	-1287.01721	185.36426	223.21141	-1184.98926	199.51186	190.55470	-1331.94458	51.39883	237.93306	-1367.97925	60.17329	206.29541	-1326.73499	36.64967	130.76790
767	6.38333	-1618.04016	1037.45203	342.65939	-1796.81592	997.37061	380.97229	-1780.36157	720.00885	429.18488	-1797.78455	678.31085	421.69165	-1838.13171	741.17780	426.74924	-1848.75244	698.22906	421.52826	-1897.29651	533.20245	368.33121	-1871.14429	525.18854	245.93265	-1864.24695	424.33331	390.19226	-1877.46509	378.58160	395.96799	-1922.97034	434.72668	377.33435	-1926.58582	387.47452	382.47821	-1944.99463	96.63464	347.26202	-1953.58215	104.40290	265.02658	-1882.63196	67.01334	312.65689	-2081.78613	50.98542	365.80209	-2126.59619	90.20943	296.06747	-2098.43701	53.78168	258.58325	-1606.65417	1040.13403	230.45935	-1778.86230	1000.65472	125.81071	-1613.97266	736.96735	84.14027	-1608.84839	692.28375	91.70554	-1675.96082	721.36133	82.17487	-1660.11047	675.48401	87.29136	-1565.36938	519.44781	117.66206	-1578.79553	510.45648	248.99577	-1457.59094	474.30795	104.15168	-1433.12524	439.12823	96.79815	-1505.16895	431.97702	104.07397	-1472.79749	404.56549	96.25214	-1271.80200	191.21808	142.35251	-1298.27173	189.80434	221.32071	-1197.60449	209.85028	189.38145	-1334.80359	53.17833	237.87741	-1369.13281	60.14003	207.15561	-1327.74268	37.45341	130.77991
768	6.39167	-1630.30286	1039.89111	343.36282	-1808.76270	999.37927	382.01627	-1792.01953	722.07794	430.77185	-1809.59363	680.49939	423.10446	-1849.64282	743.40240	428.11765	-1860.60364	700.27032	422.82416	-1908.65710	534.15338	368.89127	-1883.46106	526.88409	246.54356	-1872.65735	425.55374	391.65756	-1885.11292	379.58868	397.83420	-1931.59644	434.73996	378.52167	-1934.26477	387.36502	383.63171	-1946.02307	97.16784	347.93677	-1954.73792	104.16124	265.35718	-1883.34827	67.83326	312.85132	-2082.70679	49.19481	366.08823	-2127.69385	87.45242	296.05429	-2098.98389	51.64924	258.28503	-1619.29529	1041.47363	231.37805	-1791.80139	1002.17596	127.42022	-1630.11292	736.30969	84.25845	-1625.63318	691.45679	91.38968	-1692.32312	720.97729	81.83661	-1677.03296	675.28766	87.18187	-1584.23792	518.49268	115.30065	-1598.64587	508.32318	246.53691	-1475.82654	475.64264	102.79678	-1450.15320	441.21585	95.34001	-1521.91870	432.50583	101.51097	-1487.91589	406.99020	93.77599	-1283.74121	196.86810	140.53569	-1310.03552	194.70708	219.54938	-1211.25439	220.84442	187.87109	-1338.27905	56.00009	237.73840	-1371.66675	60.18392	207.32066	-1329.23157	39.09665	130.64403
769	6.40000	-1642.08936	1042.47791	343.65384	-1820.35229	1001.64856	383.20877	-1804.06042	723.79102	432.32596	-1821.89197	682.52814	424.36728	-1861.50232	745.68243	429.50638	-1872.56677	702.66626	423.89990	-1919.31177	535.26251	369.57687	-1895.99939	528.77100	247.24471	-1880.73096	426.91757	392.97195	-1892.23340	380.73514	399.03781	-1939.74329	435.08353	379.59329	-1941.41541	387.54593	384.69745	-1946.69531	97.29020	347.81171	-1954.95251	104.25636	265.90430	-1883.89685	68.44946	313.02780	-2083.09521	48.19897	366.41937	-2128.28223	85.71510	296.15125	-2099.34424	50.67995	258.07391	-1631.52734	1043.23950	231.66608	-1803.67346	1003.58569	129.59044	-1646.51550	735.49982	84.18184	-1642.75208	690.43011	90.96549	-1709.27161	721.33344	82.14835	-1694.27844	675.12006	87.05918	-1603.65552	517.02948	113.51215	-1619.13660	505.65378	244.27531	-1494.46216	476.74771	101.47992	-1467.85510	443.23083	93.95639	-1539.29468	432.79926	98.78271	-1504.74829	408.02087	91.46114	-1296.40564	203.06075	138.55000	-1322.57275	199.84981	217.61972	-1225.99927	232.24812	185.71584	-1342.22607	59.90295	237.21722	-1375.70813	60.39819	206.56480	-1331.39136	41.67532	130.32112
770	6.40833	-1653.77478	1045.16760	343.75897	-1831.56555	1004.07385	384.69400	-1816.12280	725.86011	434.13446	-1833.01782	684.61047	425.28458	-1873.35535	748.08118	431.01639	-1884.71167	705.29071	424.88937	-1929.17175	536.57074	370.51202	-1907.60486	530.55988	248.23332	-1888.14429	429.06592	395.29434	-1899.25000	382.17484	400.20697	-1947.78796	435.62625	380.61642	-1948.51416	388.13562	385.64087	-1947.21997	97.52368	347.75250	-1955.16260	104.41823	266.58203	-1884.21448	69.10999	313.07602	-2083.32617	47.32344	366.64554	-2128.53760	85.07410	296.37143	-2099.76221	50.07486	258.01318	-1643.58777	1045.13367	231.76364	-1815.72302	1005.32300	131.55525	-1663.07117	734.58661	83.99529	-1659.98376	689.37256	90.39796	-1726.06372	721.53406	82.16289	-1711.64966	674.77277	86.63895	-1623.52124	515.50714	111.90542	-1640.78516	502.48260	241.96368	-1513.87268	477.67926	100.28112	-1486.24695	445.11469	92.97791	-1557.33484	432.94873	97.22130	-1521.97986	408.90958	89.47650	-1309.95679	209.75648	136.69589	-1335.86133	205.55775	215.77583	-1241.96008	243.91739	183.18535	-1346.49329	64.62057	236.00882	-1380.97021	60.79554	205.37198	-1334.47729	45.63960	129.67702
771	6.41667	-1665.42419	1047.40808	343.67010	-1842.81934	1006.56641	386.39053	-1827.65613	728.24200	436.04120	-1845.84827	687.05145	427.47806	-1884.92102	750.53278	432.57974	-1896.36450	707.79407	426.30075	-1938.27661	537.80109	371.73169	-1918.02612	532.21228	249.54596	-1895.74817	430.77130	396.56503	-1905.99768	383.66422	401.41284	-1955.45520	436.13354	381.59152	-1955.22571	388.62369	386.52521	-1947.83618	97.80296	347.84479	-1955.58167	104.58929	267.03156	-1884.66516	69.86039	313.34741	-2083.79907	46.70110	367.10214	-2129.14697	83.99830	296.61887	-2100.35742	49.31973	258.13376	-1655.28210	1047.04785	231.59402	-1827.46350	1006.88263	133.61333	-1679.92627	733.31415	84.03951	-1677.41956	688.28900	89.77612	-1742.49597	721.92151	82.61361	-1729.15210	674.55786	86.09188	-1643.62183	513.69806	110.48193	-1662.62415	499.06799	240.45483	-1534.11011	478.35095	99.28358	-1505.07910	446.96973	91.99817	-1576.09485	432.75082	95.06904	-1540.04028	409.68274	87.80209	-1324.39319	216.80997	134.97949	-1349.82129	211.34882	214.26231	-1258.96240	255.68021	180.58827	-1351.48096	70.03561	234.77835	-1387.16687	61.38869	204.22618	-1338.98035	50.79043	128.68686
